<svg xmlns="http://www.w3.org/2000/svg" height="550pt" version="1.1" viewBox="-49 0 550 550.80303" width="550pt">
<g id="surface1">
<path d="M 301.277344 121.640625 L 301.277344 84.851562 L 311.460938 84.851562 C 317.503906 84.851562 322.410156 79.945312 322.410156 73.902344 L 322.410156 10.949219 C 322.410156 4.90625 317.503906 0 311.460938 0 L 153.363281 0 C 147.320312 0 142.414062 4.90625 142.414062 10.949219 L 142.414062 73.902344 C 142.414062 79.945312 147.316406 84.851562 153.363281 84.851562 L 163.542969 84.851562 L 163.542969 121.53125 C 139.5 129.511719 117.011719 141.589844 97.085938 157.222656 L 69.496094 129.632812 L 76.285156 122.84375 C 80.214844 118.257812 79.679688 111.335938 75.089844 107.40625 C 70.996094 103.890625 64.941406 103.890625 60.847656 107.40625 L 46.285156 122.296875 L 19.679688 148.574219 L 4.242188 164.011719 C -0.34375 167.941406 -0.878906 174.859375 3.050781 179.449219 C 6.980469 184.035156 13.898438 184.574219 18.488281 180.640625 C 18.914062 180.28125 19.320312 179.875 19.679688 179.449219 L 27.453125 171.675781 L 55.59375 199.8125 C -16.753906 297.550781 3.816406 435.425781 101.554688 507.773438 C 199.292969 580.121094 337.167969 559.550781 409.515625 461.8125 C 481.863281 364.074219 461.292969 226.199219 363.554688 153.851562 C 344.644531 139.855469 323.621094 128.984375 301.277344 121.640625 Z M 164.3125 21.898438 L 300.511719 21.898438 L 300.511719 62.953125 L 164.3125 62.953125 C 164.3125 62.953125 164.3125 21.898438 164.3125 21.898438 Z M 279.378906 84.851562 L 279.378906 115.507812 C 248.449219 108.609375 216.371094 108.609375 185.441406 115.507812 L 185.441406 84.851562 Z M 42.890625 156.234375 L 53.839844 145.289062 L 78.035156 169.484375 L 67.085938 180.433594 Z M 232.410156 529.253906 C 122.78125 529.320312 33.871094 440.496094 33.804688 330.867188 C 33.75 221.238281 122.5625 132.324219 232.191406 132.257812 C 341.6875 132.203125 430.558594 220.820312 430.800781 330.320312 C 430.917969 440.023438 342.117188 529.066406 232.410156 529.253906 Z M 232.410156 529.253906 " style=" stroke:none;fill-rule:nonzero;fill:rgb(0%,0%,0%);fill-opacity:1;" />
<path d="M 345.617188 217.546875 C 283.265625 155.335938 182.320312 155.335938 119.96875 217.546875 C 57.8125 279.921875 57.8125 380.824219 119.96875 443.199219 C 182.34375 505.355469 283.246094 505.355469 345.617188 443.199219 C 407.828125 380.847656 407.828125 279.902344 345.617188 217.546875 Z M 335 341.269531 L 370.035156 341.269531 C 367.679688 370.292969 356.183594 397.816406 337.1875 419.878906 L 312.664062 396.011719 C 308.078125 392.082031 301.15625 392.617188 297.226562 397.203125 C 293.710938 401.300781 293.710938 407.355469 297.226562 411.449219 L 321.96875 436.191406 C 270.4375 480.359375 194.386719 480.359375 142.851562 436.191406 L 167.597656 411.449219 C 171.855469 407.15625 171.832031 400.214844 167.539062 395.957031 C 163.25 391.699219 156.308594 391.71875 152.046875 396.011719 L 127.304688 420.753906 C 108.308594 398.695312 96.8125 371.167969 94.457031 342.144531 L 129.492188 342.144531 C 135.539062 342.144531 140.441406 337.238281 140.441406 331.195312 C 140.441406 325.152344 135.539062 320.246094 129.492188 320.246094 L 94.457031 320.246094 C 96.8125 291.222656 108.308594 263.695312 127.304688 241.636719 L 152.046875 266.378906 C 155.980469 270.964844 162.898438 271.503906 167.484375 267.570312 C 172.074219 263.640625 172.609375 256.722656 168.679688 252.132812 C 168.316406 251.707031 167.914062 251.300781 167.484375 250.941406 L 142.742188 226.199219 C 164.8125 207.210938 192.339844 195.707031 221.351562 193.351562 L 221.351562 228.386719 C 221.351562 234.429688 226.257812 239.335938 232.300781 239.335938 C 238.347656 239.335938 243.25 234.429688 243.25 228.386719 L 243.25 193.351562 C 272.277344 195.695312 299.800781 207.203125 321.863281 226.199219 L 297.117188 250.941406 C 292.53125 254.871094 291.996094 261.792969 295.925781 266.378906 C 299.855469 270.964844 306.773438 271.503906 311.363281 267.570312 C 311.789062 267.210938 312.195312 266.804688 312.554688 266.378906 L 337.300781 241.636719 C 356.296875 263.695312 367.792969 291.21875 370.144531 320.246094 L 335.109375 320.246094 C 329.066406 320.246094 324.160156 325.152344 324.160156 331.195312 C 324.160156 337.238281 329.0625 342.144531 335.109375 342.144531 Z M 335 341.269531 " style=" stroke:none;fill-rule:nonzero;fill:rgb(0%,0%,0%);fill-opacity:1;" />
<path d="M 232.410156 297.472656 C 218.34375 297.429688 205.75 306.175781 200.878906 319.371094 L 164.3125 319.371094 C 158.265625 319.371094 153.363281 324.273438 153.363281 330.320312 C 153.363281 336.363281 158.265625 341.269531 164.3125 341.269531 L 200.878906 341.269531 C 206.5625 358.871094 225.449219 368.539062 243.054688 362.859375 C 260.660156 357.175781 270.324219 338.289062 264.644531 320.683594 C 260.132812 306.722656 247.070312 297.320312 232.410156 297.472656 Z M 232.410156 342.691406 C 226.003906 342.679688 220.816406 337.46875 220.828125 331.0625 C 220.839844 324.65625 226.050781 319.46875 232.457031 319.480469 C 238.554688 319.492188 243.613281 324.230469 244.007812 330.320312 C 244.246094 336.722656 239.253906 342.109375 232.847656 342.351562 C 232.695312 342.363281 232.554688 342.363281 232.398438 342.363281 L 232.398438 342.691406 Z M 232.410156 342.691406 " style=" stroke:none;fill-rule:nonzero;fill:rgb(0%,0%,0%);fill-opacity:1;" />
</g>
</svg>