<?xml version="1.0" encoding="utf-8"?>
<!-- Generator: Adobe Illustrator 23.0.0, SVG Export Plug-In . SVG Version: 6.00 Build 0)  -->
<svg version="1.1" xmlns="http://www.w3.org/2000/svg" xmlns:xlink="http://www.w3.org/1999/xlink" x="0px" y="0px"
	 viewBox="0 0 1080 1920" style="enable-background:new 0 0 1080 1920;" xml:space="preserve">
<style type="text/css">
	.st0{display:none;}
	.st1{display:inline;fill:none;stroke:#000000;stroke-miterlimit:10;}
	.st2{fill:#83B69B;}
	.st3{fill:#FFFFFF;stroke:#000000;stroke-miterlimit:10;}
	.st4{display:inline;fill:#FFFFFF;}
</style>
<g id="Camada_1" class="st0">
	
		<image style="display:inline;overflow:visible;" width="3321" height="5904" xlink:href="DD51EF59.jpg"  transform="matrix(0.3252 0 0 0.3252 0 0)">
	</image>
	<path class="st1" d="M442.5,548.5"/>
	<path class="st1" d="M633.7,549"/>
</g>
<g id="Camada_4">
	<path class="st2" d="M1080.5,42.5c0,0-136,151-270,17s-270,55-270,55s-136-189-270-55s-270-17-270-17v1878h1080V42.5z"/>
	<path class="st3" d="M935.8,114.9"/>
	<path class="st3" d="M145.2,114.9"/>
</g>
<g id="Camada_2" class="st0">
	<polygon class="st4" points="1081,68 1081,1920 1,1920 1,68 1.3,68 3,68.4 3,68 1080,68 1080,68.2 1080.8,68 	"/>
</g>
</svg>
